<?xml version="1.0" encoding="UTF-8"?>
<svg id="Layer_1" data-name="Layer 1" xmlns="http://www.w3.org/2000/svg" viewBox="0 0 213.75 36.7">
  <defs>
    <style>
      .cls-1 {
        fill: #e7430c;
      }

      .cls-2 {
        fill: #fff;
      }

      .cls-3 {
        fill: #3b3b3a;
      }
    </style>
  </defs>
  <path class="cls-3" d="M194.66,16.06v-4.03h9.98v4.03h-9.98ZM202.12,29.4c-1.82,0-3.14-.46-3.95-1.39s-1.23-2.25-1.23-3.98V3.13h4.35v20.94c0,.48.11.86.32,1.13s.53.41.94.41h2.09v3.79h-2.51Z"/>
  <path class="cls-1" d="M15.67,0c5.13,4.22,10.26,8.45,15.38,12.67.1.08.19.16.29.24v18.63c-5.22-3.65-10.45-7.3-15.67-10.95-5.22,3.7-10.45,7.41-15.67,11.11V12.91C5.22,8.61,10.45,4.3,15.67,0Z"/>
  <g>
    <path class="cls-3" d="M54.54,22.31h-9.25l-2.27,6.01h-4.9L47.42,3.52h4.97l9.29,24.8h-4.86l-2.27-6.01ZM46.84,18.28h6.19l-3.13-9.47-3.06,9.47Z"/>
    <path class="cls-3" d="M63.83,2.38h4.39v25.95h-4.39V2.38Z"/>
    <path class="cls-3" d="M79.15,32.71c4.25,0,5.4-3.17,5.11-6.7-.86,1.69-3.2,2.66-5.36,2.66-4.39,0-8.42-3.38-8.42-8.71s4.03-8.82,8.42-8.82c2.2,0,4.39.94,5.36,2.63v-2.27h4.28v14.4c0,7.49-3.56,10.8-9.4,10.8-3.49,0-6.55-1.91-8.03-4.97.97-.47,2.59-1.33,3.56-1.8.72,1.69,2.7,2.77,4.46,2.77ZM79.58,15.36c-2.45,0-4.54,1.8-4.54,4.54s2.09,4.61,4.54,4.61c2.27,0,4.57-1.76,4.57-4.61s-2.16-4.54-4.57-4.54Z"/>
    <path class="cls-3" d="M90.74,19.86c0-5.33,4-8.71,8.75-8.71s8.75,3.38,8.75,8.71-4,8.78-8.75,8.78-8.75-3.49-8.75-8.78ZM103.88,19.86c0-2.7-1.94-4.39-4.39-4.39s-4.39,1.69-4.39,4.39,1.94,4.5,4.39,4.5,4.39-1.76,4.39-4.5Z"/>
  </g>
  <g>
    <path class="cls-3" d="M105.84,4.24h18.61v4.21h-6.98v20.59h-4.64V8.45h-6.98v-4.21Z"/>
    <path class="cls-3" d="M131.34,29.04h-4.39V3.08h4.39v11.73c.76-2.02,3.56-2.95,5.22-2.95,4.36,0,6.77,2.88,6.77,7.81v9.36h-4.39v-9.14c0-2.41-1.76-3.74-3.56-3.74s-4.03,1.01-4.03,3.92v8.96Z"/>
    <path class="cls-3" d="M150.47,29.04h-4.39V12.23h4.39v3.96c.86-3.06,2.84-4.32,4.75-4.32,1.19,0,2.09.22,2.77.61l-.76,3.96c-1.04-.47-2.12-.47-2.56-.47-2.99,0-4.21,2.66-4.21,7.13v5.94Z"/>
    <path class="cls-3" d="M171.92,12.23h4.39v16.81h-4.39v-2.38c-.94,1.8-2.95,2.74-4.64,2.74-4,0-6.62-2.48-6.62-7.24v-9.94h4.43v9.14c0,2.74,1.66,3.74,3.2,3.74,1.84,0,3.64-1.01,3.64-3.92v-8.96Z"/>
    <path class="cls-3" d="M184.35,22.02c-4.36-1.15-4.75-3.2-4.75-5.15,0-2.74,2.88-5,6.19-5s6.37,1.44,6.55,5.29h-4.17c-.11-1.26-1.26-1.73-2.27-1.73-1.12,0-2.12.4-2.12,1.66,0,.68.79,1.15,1.76,1.4l2.81.68c3.89,1.08,4.39,3.67,4.39,5.04,0,3.46-3.38,5.18-6.88,5.18-3.31,0-6.66-2.05-6.77-5.65h4.1c.11,1.19,1.48,2.23,3.1,2.12,1.26-.04,2.2-.72,2.2-1.69.04-.86-.58-1.3-1.84-1.58l-2.3-.58Z"/>
  </g>
  <rect class="cls-2" x="45.75" width="168" height="4.24"/>
</svg>