<?xml version="1.0" encoding="UTF-8"?>
<svg id="Layer_1" data-name="Layer 1" xmlns="http://www.w3.org/2000/svg" viewBox="0 0 250.25 64.51">
  <defs>
    <style>
      .cls-1, .cls-2 {
        fill: #4a4a47;
      }

      .cls-3 {
        fill: #1a1a18;
        font-family: SofiaPro-SemiBold, 'Sofia Pro';
        font-size: 29.43px;
        font-weight: 600;
      }

      .cls-4 {
        letter-spacing: 0em;
      }

      .cls-5 {
        fill: #d94b1f;
      }

      .cls-2 {
        fill-rule: evenodd;
      }
    </style>
  </defs>
  <path class="cls-5" d="M9.44,26.41c3.09,2.54,6.18,5.08,9.27,7.62.06.05.12.1.17.14v11.21c-3.15-2.2-6.29-4.39-9.44-6.59-3.15,2.23-6.29,4.46-9.44,6.69v-11.31c3.15-2.59,6.29-5.18,9.44-7.77Z"/>
  <path class="cls-2" d="M32.27,42.97h2.74v-10.49h-2.74v1.3c-.79-1.15-2.29-1.53-3.26-1.53-2.76,0-5.35,2.11-5.35,5.46s2.58,5.46,5.35,5.46c1.01,0,2.61-.47,3.26-1.55v1.35h0ZM26.5,37.71c0-1.71,1.37-2.83,2.9-2.83,1.44,0,2.87,1.03,2.87,2.83s-1.37,2.83-2.87,2.83-2.9-1.12-2.9-2.83Z"/>
  <rect class="cls-1" x="37.32" y="26.77" width="2.74" height="16.19"/>
  <path class="cls-2" d="M60.47,40.62c-1.53,0-2.74-1.1-2.74-2.81s1.21-2.74,2.74-2.74c.68,0,1.29.21,1.77.59l1.01-2.59c-.82-.45-1.77-.7-2.78-.7-2.96,0-5.46,2.11-5.46,5.44s2.49,5.48,5.46,5.48,5.46-2.18,5.46-5.48c0-1.11-.28-2.08-.75-2.88l-2.56,1.1c.37.46.59,1.06.59,1.78,0,1.71-1.21,2.81-2.74,2.81Z"/>
  <polygon class="cls-2" points="71.71 28.7 68.99 28.7 68.99 32.7 67.08 32.7 67.08 34.9 68.99 34.9 68.99 43.19 71.71 43.19 71.71 34.9 73.93 34.9 73.93 32.7 71.71 32.7 71.71 28.7"/>
  <path class="cls-2" d="M78.48,37.38c0-1.82,1.37-2.45,2.52-2.45s2.22.83,2.22,2.34v5.7h2.74v-5.84c0-3.08-1.5-4.87-4.22-4.87-1.03,0-2.78.58-3.26,1.84v-7.32h-2.74v16.19h2.74v-5.59Z"/>
  <path class="cls-2" d="M90.92,39.37c0-2.78.76-4.45,2.63-4.45.27,0,.94,0,1.59.29l.47-2.47c-.43-.25-.99-.38-1.73-.38-1.19,0-2.43.79-2.96,2.7v-2.47h-2.74v10.49h2.74v-3.71Z"/>
  <path class="cls-2" d="M104.45,38.07c0,1.82-1.12,2.45-2.27,2.45-.97,0-2-.63-2-2.34v-5.7h-2.76v6.2c0,2.96,1.64,4.51,4.13,4.51,1.06,0,2.31-.58,2.9-1.71v1.48h2.74v-10.49h-2.74v5.59Z"/>
  <path class="cls-2" d="M114.22,39.06c.79.18,1.17.45,1.15.99,0,.61-.58,1.03-1.37,1.06-1.01.07-1.86-.58-1.93-1.33h-2.56c.07,2.25,2.16,3.53,4.22,3.53,2.18,0,4.29-1.08,4.29-3.23,0-.85-.31-2.47-2.74-3.14l-1.75-.43c-.61-.16-1.1-.45-1.1-.88,0-.79.63-1.03,1.33-1.03.63,0,1.35.29,1.41,1.08h2.61c-.11-2.4-2.09-3.3-4.09-3.3s-3.86,1.41-3.86,3.12c0,1.21.25,2.49,2.96,3.21l1.44.36Z"/>
  <polygon class="cls-2" points="123.79 28.7 121.08 28.7 121.08 32.7 119.17 32.7 119.17 34.9 121.08 34.9 121.08 43.19 123.79 43.19 123.79 34.9 126.02 34.9 126.02 32.7 123.79 32.7 123.79 28.7"/>
  <path class="cls-2" d="M47.74,32.74c-3.17,0-5.37,2.44-5.37,5.23,0,3.12,2.39,5.26,5.39,5.26s5.32-2.11,5.32-5.27c0-1.86-.81-2.69-.81-2.69l.69-.24v-2.01h-3.51s-.76-.29-1.71-.29h0ZM47.71,35.12c1.66,0,2.88,1.29,2.88,2.85,0,1.65-1.35,2.86-2.84,2.86-1.76,0-2.87-1.4-2.87-2.86,0-1.6,1.25-2.86,2.82-2.86h0Z"/>
  <path class="cls-2" d="M50.59,43.64c0,1.65-1.35,2.87-2.84,2.87-1.76,0-2.87-1.41-2.87-2.87h-2.51c0,3.12,2.39,5.26,5.39,5.26s5.32-2.1,5.32-5.26h-2.5Z"/>
  <rect class="cls-1" x="149.57" width="1.83" height="64.51"/>
  <text class="cls-3" transform="translate(174.19 46.6) scale(1.03 1)"><tspan class="cls-4" x="0" y="0">L</tspan><tspan x="14.71" y="0">ogin</tspan></text>
</svg>