<?xml version="1.0" encoding="UTF-8"?>
<svg id="Layer_1" data-name="Layer 1" xmlns="http://www.w3.org/2000/svg" viewBox="0 0 285.19 72.28">
  <defs>
    <style>
      .cls-1, .cls-2 {
        fill: #4a4a47;
      }

      .cls-3 {
        letter-spacing: -.08em;
      }

      .cls-4 {
        fill: #f6f5ee;
      }

      .cls-5 {
        fill: #d94b1f;
      }

      .cls-6 {
        fill: #ee7336;
        font-family: SofiaPro-SemiBold, 'Sofia Pro';
        font-size: 19px;
        font-weight: 600;
      }

      .cls-2 {
        fill-rule: evenodd;
      }
    </style>
  </defs>
  <rect class="cls-4" width="285.19" height="72.28" rx="7" ry="7"/>
  <path class="cls-5" d="M33.37,10.96c6.18,5.08,12.35,10.17,18.53,15.25.12.1.23.19.35.29v22.42c-6.29-4.39-12.59-8.78-18.88-13.18-6.29,4.46-12.59,8.92-18.88,13.37v-22.62c6.29-5.18,12.59-10.36,18.88-15.54Z"/>
  <path class="cls-2" d="M79.03,44.08h5.48v-20.98h-5.48v2.61c-1.57-2.29-4.58-3.05-6.51-3.05-5.52,0-10.69,4.22-10.69,10.92s5.17,10.92,10.69,10.92c2.02,0,5.21-.94,6.51-3.1v2.7h0ZM67.48,33.57c0-3.41,2.74-5.66,5.79-5.66,2.87,0,5.75,2.07,5.75,5.66s-2.74,5.66-5.75,5.66-5.79-2.25-5.79-5.66Z"/>
  <rect class="cls-1" x="89.13" y="11.7" width="5.48" height="32.39"/>
  <path class="cls-2" d="M136.42,39.39c-3.05,0-5.48-2.2-5.48-5.61s2.43-5.48,5.48-5.48c1.36,0,2.59.42,3.54,1.17l2.02-5.17c-1.64-.9-3.54-1.39-5.56-1.39-5.93,0-10.92,4.22-10.92,10.87s4.99,10.96,10.92,10.96,10.92-4.36,10.92-10.96c0-2.21-.55-4.16-1.51-5.77l-5.11,2.21c.74.91,1.19,2.12,1.19,3.56,0,3.41-2.43,5.61-5.48,5.61Z"/>
  <polygon class="cls-2" points="158.9 15.55 153.46 15.55 153.46 23.55 149.64 23.55 149.64 27.95 153.46 27.95 153.46 44.52 158.9 44.52 158.9 27.95 163.34 27.95 163.34 23.55 158.9 23.55 158.9 15.55"/>
  <path class="cls-2" d="M172.45,32.9c0-3.64,2.74-4.9,5.03-4.9s4.45,1.66,4.45,4.67v11.41h5.48v-11.68c0-6.15-3.01-9.75-8.44-9.75-2.07,0-5.57,1.17-6.51,3.68v-14.64h-5.48v32.39h5.48v-11.18Z"/>
  <path class="cls-2" d="M197.32,36.9c0-5.57,1.53-8.89,5.26-8.89.54,0,1.89,0,3.19.58l.94-4.94c-.85-.49-1.98-.76-3.46-.76-2.38,0-4.85,1.57-5.93,5.39v-4.94h-5.48v20.98h5.48v-7.41Z"/>
  <path class="cls-2" d="M224.39,34.29c0,3.64-2.25,4.9-4.54,4.9-1.93,0-4-1.26-4-4.67v-11.41h-5.53v12.4c0,5.93,3.28,9.03,8.27,9.03,2.11,0,4.63-1.17,5.79-3.41v2.96h5.48v-20.98h-5.48v11.18Z"/>
  <path class="cls-2" d="M243.92,36.27c1.57.36,2.34.9,2.29,1.98,0,1.21-1.17,2.07-2.74,2.11-2.02.13-3.73-1.17-3.86-2.65h-5.12c.13,4.49,4.31,7.05,8.44,7.05,4.36,0,8.58-2.16,8.58-6.47,0-1.71-.63-4.94-5.48-6.29l-3.5-.85c-1.21-.31-2.2-.9-2.2-1.75,0-1.57,1.26-2.07,2.65-2.07,1.26,0,2.7.58,2.83,2.16h5.21c-.22-4.81-4.18-6.6-8.18-6.6s-7.73,2.83-7.73,6.24c0,2.43.49,4.99,5.93,6.42l2.87.72Z"/>
  <polygon class="cls-2" points="263.08 15.55 257.64 15.55 257.64 23.55 253.82 23.55 253.82 27.95 257.64 27.95 257.64 44.52 263.08 44.52 263.08 27.95 267.52 27.95 267.52 23.55 263.08 23.55 263.08 15.55"/>
  <path class="cls-2" d="M109.96,23.62c-6.34,0-10.73,4.88-10.73,10.46,0,6.23,4.78,10.52,10.78,10.52s10.65-4.21,10.65-10.54c0-3.72-1.61-5.38-1.61-5.38l1.37-.47v-4.02h-7.03s-1.52-.58-3.43-.58h0ZM109.9,28.39c3.32,0,5.76,2.58,5.76,5.7,0,3.31-2.69,5.72-5.67,5.72-3.52,0-5.74-2.79-5.74-5.71,0-3.2,2.5-5.71,5.65-5.71h0Z"/>
  <path class="cls-2" d="M115.66,45.43c0,3.31-2.69,5.74-5.67,5.74-3.52,0-5.75-2.82-5.75-5.74h-5.02c0,6.23,4.78,10.52,10.78,10.52s10.65-4.2,10.65-10.52h-4.99Z"/>
  <text class="cls-6" transform="translate(150.84 63.61)"><tspan class="cls-3" x="0" y="0">T</tspan><tspan x="9.35" y="0">echnologies</tspan></text>
</svg>