<?xml version="1.0" encoding="UTF-8"?>
<svg id="Layer_1" data-name="Layer 1" xmlns="http://www.w3.org/2000/svg" viewBox="0 0 219.67 42.27">
  <defs>
    <style>
      .cls-1 {
        fill: #e7430c;
      }

      .cls-2 {
        fill: #fff;
      }

      .cls-3, .cls-4, .cls-5, .cls-6 {
        font-family: SofiaPro-SemiBold, 'Sofia Pro';
      }

      .cls-3, .cls-4, .cls-5, .cls-6, .cls-7 {
        fill: #3b3b3a;
        font-size: 37.44px;
        font-weight: 600;
      }

      .cls-4 {
        letter-spacing: -.03em;
      }

      .cls-5 {
        letter-spacing: -.02em;
      }

      .cls-6 {
        letter-spacing: -.03em;
      }

      .cls-7 {
        font-family: Bahnschrift-SemiBold, Bahnschrift;
        font-variation-settings: 'wght' 600, 'wdth' 100;
      }
    </style>
  </defs>
  <path class="cls-1" d="M19.17,1.34c6.27,4.98,12.54,9.95,18.81,14.93.12.09.24.19.35.28v21.95c-6.39-4.3-12.78-8.6-19.17-12.9-6.39,4.36-12.78,8.73-19.17,13.09v-22.14C6.39,11.48,12.78,6.41,19.17,1.34Z"/>
  <text class="cls-6" transform="translate(47.72 32.01)"><tspan x="0" y="0">A</tspan></text>
  <text class="cls-3" transform="translate(72.21 32.01)"><tspan x="0" y="0">l</tspan></text>
  <text class="cls-3" transform="translate(80.02 32.01)"><tspan x="0" y="0">g</tspan></text>
  <text class="cls-3" transform="translate(100.31 32.01)"><tspan x="0" y="0">o</tspan></text>
  <text class="cls-4" transform="translate(116.97 32.01)"><tspan x="0" y="0">T</tspan></text>
  <text class="cls-3" transform="translate(136.33 32.01)"><tspan x="0" y="0">h</tspan></text>
  <text class="cls-5" transform="translate(155.61 32.01)"><tspan x="0" y="0">r</tspan></text>
  <text class="cls-3" transform="translate(170.58 32.01)"><tspan x="0" y="0">u</tspan></text>
  <text class="cls-3" transform="translate(189.23 31.81)"><tspan x="0" y="0">s</tspan></text>
  <text class="cls-7" transform="translate(204.76 32.01)"><tspan x="0" y="0">t</tspan></text>
  <rect class="cls-2" x="46.31" y="2.03" width="173.35" height="4.02"/>
</svg>