<svg xmlns="http://www.w3.org/2000/svg" version="1.2" viewBox="0 0 221 64"><path fill-rule="evenodd" d="M22.7 34.1c-1.4 2.3-4.8 3.3-7 3.3-5.9 0-11.5-4.6-11.5-11.8 0-7.3 5.6-11.8 11.5-11.8 2.1 0 5.3.8 7 3.3v-2.8h5.9v22.6h-5.9zm-6.2-2.5c3.3 0 6.2-2.2 6.2-6.1 0-3.9-3.1-6.1-6.2-6.1-3.2 0-6.2 2.4-6.2 6.1 0 3.7 2.9 6.1 6.2 6.1zM33.6 2h5.9v34.9h-5.9zm48 29.5c-3.3 0-5.9-2.4-5.9-6s2.6-5.9 5.9-5.9c1.5 0 2.8.4 3.8 1.3l2.2-5.6q-2.7-1.5-6-1.5c-6.4 0-11.8 4.5-11.8 11.7 0 7.1 5.4 11.8 11.8 11.8s11.8-4.7 11.8-11.8c0-2.4-.6-4.5-1.6-6.2l-5.5 2.4c.8 1 1.3 2.3 1.3 3.8-.1 3.7-2.8 6-6 6zm25.1-25.8h-5.9v8.6h-4.1V19h4.1v17.9h5.9V19h4.7v-4.7h-4.7zm14.1 19.1c0-3.9 3-5.3 5.4-5.3 2.4 0 4.8 1.8 4.8 5v12.3h5.9V24.2c0-6.6-3.2-10.5-9.1-10.5-2.2 0-6 1.3-7 4V2h-5.9v34.9h5.9zm26.2 4.1c0-6 1.6-9.6 5.7-9.6.6 0 2 0 3.4.6l1-5.3c-.9-.5-2.1-.8-3.7-.8-2.6 0-5.2 1.7-6.4 5.8v-5.3h-5.9v22.6h5.9zm28.3-2.6c0 3.9-2.4 5.3-4.9 5.3-2.1 0-4.3-1.4-4.3-5V14.3h-5.9v13.3c0 6.4 3.5 9.7 8.9 9.7 2.3 0 5-1.3 6.2-3.7v3.2h5.9V14.2h-5.9zm19.8 1.9c1.7.4 2.5 1 2.5 2.1 0 1.3-1.3 2.2-3 2.3-2.2.1-4-1.3-4.2-2.9H185c.1 4.8 4.6 7.6 9.1 7.6 4.7 0 9.2-2.3 9.2-7 0-1.8-.7-5.3-5.9-6.8l-3.8-.9c-1.3-.3-2.4-1-2.4-1.9 0-1.7 1.4-2.2 2.9-2.2 1.4 0 2.9.6 3 2.3h5.6c-.2-5.2-4.5-7.1-8.8-7.1-4.4 0-8.3 3-8.3 6.7 0 2.6.5 5.4 6.4 6.9zM215 5.7h-5.8v8.6h-4.1V19h4.1v17.9h5.8V19h4.8v-4.7H215zM58.5 15.5h7.6v4.3l-1.5.5s1.7 1.8 1.7 5.8c0 6.8-5.4 11.3-11.5 11.3-6.5 0-11.6-4.6-11.6-11.3 0-6 4.8-11.3 11.6-11.3 2.1 0 3.7.6 3.7.7zm-9.8 10.6c0 3.2 2.4 6.2 6.2 6.2 3.2 0 6.1-2.6 6.1-6.2 0-3.3-2.6-6.1-6.2-6.1-3.4 0-6.1 2.7-6.1 6.1zM61 38.3c0 3.6-2.9 6.2-6.1 6.2-3.8 0-6.2-3-6.2-6.2h-5.4c0 6.7 5.1 11.3 11.6 11.3 6.1 0 11.5-4.5 11.5-11.3z" class="s0"/><path fill="#878786" fill-rule="evenodd" d="M96.2 46.8v-2.3h10.3v2.3h-3.8v11.3h-2.6V46.8zm19.6 6.7v.8h-7.1c.2 1.3 1.2 2 2.6 2 .9 0 1.9-.4 2.3-1.2.6.3 1.2.7 1.8 1-.9 1.6-2.6 2.2-4.3 2.2-2.6 0-4.8-1.9-4.8-4.9 0-2.9 2.2-4.8 4.8-4.8 2.6.1 4.7 2 4.7 4.9zm-7.1-.8h4.8c-.2-1.3-1.1-2-2.3-2-1.4 0-2.4.7-2.5 2zm13.6-3.9c1.5 0 2.9.6 3.8 1.8l-1.9 1.4c-.4-.6-1.1-.9-1.9-.9-1.3 0-2.6 1-2.6 2.5s1.3 2.5 2.6 2.5c.7 0 1.4-.3 1.9-.9l1.9 1.4c-.9 1.1-2.3 1.8-3.9 1.8-2.7 0-5-2-5-4.9 0-2.9 2.4-4.8 5.1-4.7zm8.3 9.3h-2.4V43.8h2.4v6.5c.4-1.1 2-1.6 2.9-1.6 2.4 0 3.7 1.6 3.7 4.3v5.1h-2.4v-5c0-1.4-1-2.1-2-2.1s-2.2.6-2.2 2.2zm11.5-4.9v4.9h-2.4v-9.3h2.4v1.4c.6-1 1.7-1.6 2.8-1.6 2.2 0 3.5 1.4 3.5 4v5.5H146v-5c0-1.4-.7-2.1-1.8-2.1s-2 .6-2 2.2zm8.4.3c0-2.9 2.2-4.8 4.8-4.8 2.6 0 4.8 1.9 4.8 4.8s-2.2 4.8-4.8 4.8c-2.6 0-4.8-1.9-4.8-4.8zm7.2 0c0-1.5-1.1-2.4-2.4-2.4-1.3 0-2.4.9-2.4 2.4s1.1 2.5 2.4 2.5c1.3 0 2.4-1 2.4-2.5zm4.6-9.7h2.4v14.3h-2.4zm4.6 9.7c0-2.9 2.2-4.8 4.8-4.8 2.6 0 4.8 1.9 4.8 4.8s-2.2 4.8-4.8 4.8c-2.7 0-4.9-1.9-4.8-4.8zm7.2 0c0-1.5-1.1-2.4-2.4-2.4-1.3 0-2.4.9-2.4 2.4s1.1 2.5 2.4 2.5c1.3 0 2.4-1 2.4-2.5zm8.7 7c2.3 0 3-1.8 2.8-3.7-.5 1-1.8 1.5-3 1.5-2.4 0-4.6-1.9-4.6-4.8 0-3 2.2-4.9 4.6-4.9 1.3 0 2.5.5 3 1.4v-1.2h2.4v7.9c0 4.2-2 6-5.2 6-1.9 0-3.6-1-4.4-2.7.6-.3 1.5-.7 2-1 .4 1 1.5 1.6 2.4 1.5zm.3-9.5c-1.3 0-2.5 1-2.5 2.5s1.2 2.5 2.5 2.5c1.2 0 2.5-.9 2.5-2.5s-1.2-2.5-2.5-2.5zm10.1 7.2h-2.4v-9.3h2.4zM192 43.9c.8 0 1.5.6 1.5 1.4 0 .9-.6 1.5-1.5 1.5s-1.6-.6-1.6-1.5c0-.8.7-1.5 1.6-1.4zm12.8 10.5h-7.1c.2 1.3 1.2 2 2.6 2 .9 0 1.8-.4 2.3-1.2.5.3 1.2.7 1.8 1-.8 1.5-2.6 2.2-4.3 2.2-2.6 0-4.8-2-4.8-4.9 0-2.9 2.2-4.8 4.8-4.8 2.6 0 4.7 1.9 4.7 4.8v.9zm-2.4-1.7c-.2-1.3-1.1-2-2.3-2-1.2 0-2.2.7-2.4 2zm6.7 1.5c-2.4-.6-2.6-1.7-2.6-2.8 0-1.6 1.6-2.8 3.4-2.8 1.8 0 3.5.8 3.6 2.9h-2.3c0-.7-.6-1-1.2-1s-1.2.2-1.2.9c0 .4.5.7 1 .8l1.5.4c2.1.6 2.4 2 2.4 2.8 0 1.9-1.9 2.9-3.8 2.9-1.8 0-3.6-1.1-3.7-3.1h2.3c.1.7.8 1.3 1.7 1.2.7 0 1.2-.4 1.2-.9s-.3-.7-1-.9z"/><path fill="#00963f" fill-rule="evenodd" d="M188.5 10.9V5.1l5.6-3.9 5.6 3.9v5.8l-5.6-3.4z"/></svg>