<?xml version="1.0" encoding="UTF-8"?>
<svg id="Layer_1" data-name="Layer 1" xmlns="http://www.w3.org/2000/svg" viewBox="0 0 266.7 62.8">
  <defs>
    <style>
      .cls-1 {
        fill: #979491;
      }

      .cls-1, .cls-2, .cls-3 {
        fill-rule: evenodd;
      }

      .cls-2 {
        fill: #fc5306;
      }

      .cls-3, .cls-4 {
        fill: #484a4a;
      }
    </style>
  </defs>
  <path class="cls-3" d="M69.6,36.9h5.9V14.3h-5.9v2.8c-1.7-2.5-4.9-3.3-7-3.3-5.9,0-11.5,4.6-11.5,11.8s5.6,11.8,11.5,11.8,5.6-1,7-3.3v2.9h0v-.1ZM57.2,25.6c0-3.7,2.9-6.1,6.2-6.1s6.2,2.2,6.2,6.1-2.9,6.1-6.2,6.1-6.2-2.4-6.2-6.1Z"/>
  <rect class="cls-4" x="80.5" y="2" width="5.9" height="34.9"/>
  <path class="cls-3" d="M128.5,31.6c-3.3,0-5.9-2.4-5.9-6.1s2.6-5.9,5.9-5.9,2.8.4,3.8,1.3l2.2-5.6c-1.8-1-3.8-1.5-6-1.5-6.4,0-11.8,4.6-11.8,11.7s5.4,11.8,11.8,11.8,11.8-4.7,11.8-11.8-.6-4.5-1.6-6.2l-5.5,2.4c.8,1,1.3,2.3,1.3,3.8,0,3.7-2.6,6.1-5.9,6.1h-.1Z"/>
  <polygon class="cls-3" points="153.6 5.7 147.7 5.7 147.7 14.3 143.6 14.3 143.6 19 147.7 19 147.7 36.9 153.6 36.9 153.6 19 158.4 19 158.4 14.3 153.6 14.3 153.6 5.7"/>
  <path class="cls-3" d="M167.7,24.8c0-3.9,2.9-5.3,5.4-5.3s4.8,1.8,4.8,5v12.3h5.9v-12.6c0-6.6-3.2-10.5-9.1-10.5s-6,1.3-7,4V1.9h-5.9v34.9h5.9v-12h0Z"/>
  <path class="cls-3" d="M194,28.9c0-6,1.6-9.6,5.7-9.6s2,0,3.4.6l1-5.3c-.9-.5-2.1-.8-3.7-.8-2.6,0-5.2,1.7-6.4,5.8v-5.3h-5.9v22.6h5.9v-8h0Z"/>
  <path class="cls-3" d="M222.2,26.3c0,3.9-2.4,5.3-4.9,5.3s-4.3-1.4-4.3-5v-12.3h-5.9v13.4c0,6.4,3.5,9.7,8.9,9.7s5-1.3,6.2-3.7v3.2h5.9V14.3h-5.9v12h0Z"/>
  <path class="cls-3" d="M242,28.2c1.7.4,2.5,1,2.5,2.1,0,1.3-1.3,2.2-3,2.3-2.2.1-4-1.3-4.2-2.9h-5.5c.1,4.8,4.6,7.6,9.1,7.6s9.2-2.3,9.2-7-.7-5.3-5.9-6.8l-3.8-.9c-1.3-.3-2.4-1-2.4-1.9,0-1.7,1.4-2.2,2.9-2.2s2.9.6,3,2.3h5.6c-.2-5.2-4.5-7.1-8.8-7.1s-8.3,3.1-8.3,6.7.5,5.4,6.4,6.9l3.1.8h0l.1.1Z"/>
  <polygon class="cls-3" points="262 5.7 256.1 5.7 256.1 14.3 252 14.3 252 19 256.1 19 256.1 36.9 262 36.9 262 19 266.7 19 266.7 14.3 262 14.3 262 5.7"/>
  <path class="cls-3" d="M101.8,14.8c-6.8,0-11.6,5.2-11.6,11.3s5.1,11.3,11.6,11.3,11.5-4.5,11.5-11.3-1.7-5.8-1.7-5.8l1.5-.5v-4.3h-7.6s-1.6-.6-3.7-.6h0v-.1ZM101.7,20c3.6,0,6.2,2.8,6.2,6.1s-2.9,6.2-6.1,6.2-6.2-3-6.2-6.1,2.7-6.1,6.1-6.1h0v-.1Z"/>
  <path class="cls-3" d="M107.9,38.3c0,3.6-2.9,6.2-6.1,6.2s-6.2-3-6.2-6.2h-5.4c0,6.7,5.1,11.3,11.6,11.3s11.5-4.5,11.5-11.3h-5.4Z"/>
  <path class="cls-1" d="M143.2,46.8h3.9v11.4h2.6v-11.4h3.9v-2.3h-10.3v2.3h-.1ZM162.7,53.5v.8h-7.1c.2,1.2,1.2,2,2.6,2s1.9-.4,2.3-1.2c.6.3,1.2.7,1.9,1-.9,1.6-2.6,2.2-4.3,2.2-2.6,0-4.8-1.9-4.8-4.9s2.2-4.8,4.8-4.8,4.7,1.9,4.7,4.8h0l-.1.1ZM155.6,52.7h4.8c-.2-1.3-1.1-2-2.3-2s-2.3.7-2.4,2h-.1ZM164.2,53.5c0,2.9,2.3,4.9,5,4.9s3-.6,3.9-1.8l-1.9-1.4c-.5.6-1.1.9-1.9.9-1.4,0-2.6-1-2.6-2.5s1.2-2.5,2.6-2.5,1.5.3,1.9.9l1.9-1.4c-.9-1.2-2.3-1.8-3.9-1.8-2.7,0-5,1.9-5,4.8h0v-.1ZM177.5,53.2c0-1.6,1.2-2.2,2.2-2.2s2,.7,2,2.1v5h2.4v-5.2c0-2.7-1.3-4.3-3.7-4.3s-2.5.5-2.9,1.6v-6.5h-2.4v14.3h2.4v-4.9h0v.1ZM189.1,53.2c0-1.6.9-2.2,2-2.2s1.8.7,1.8,2.1v5h2.4v-5.5c0-2.6-1.3-4-3.4-4s-2.2.6-2.8,1.6v-1.4h-2.4v9.3h2.4v-4.9h0ZM202.2,56c-1.4,0-2.4-1-2.4-2.5s1.1-2.4,2.4-2.4,2.4.9,2.4,2.4-1.1,2.5-2.4,2.5h0ZM202.2,58.4c2.6,0,4.8-1.9,4.8-4.8s-2.2-4.8-4.8-4.8-4.8,1.9-4.8,4.8,2.2,4.8,4.8,4.8h0ZM209.2,58.2h2.4v-14.3h-2.4v14.3h0ZM218.6,56c-1.4,0-2.4-1-2.4-2.5s1.1-2.4,2.4-2.4,2.4.9,2.4,2.4-1.1,2.5-2.4,2.5h0ZM218.6,58.4c2.6,0,4.8-1.9,4.8-4.8s-2.2-4.8-4.8-4.8-4.8,1.9-4.8,4.8,2.2,4.8,4.8,4.8h0ZM232.6,53.5c0,1.6-1.3,2.5-2.5,2.5s-2.5-1-2.5-2.5,1.1-2.5,2.5-2.5,2.5.9,2.5,2.5h0ZM227.3,59.1c-.5.3-1.4.7-2,1,.8,1.7,2.5,2.7,4.4,2.7,3.2,0,5.2-1.8,5.2-5.9v-7.9h-2.4v1.2c-.5-.9-1.8-1.4-3-1.4-2.4,0-4.6,1.9-4.6,4.9s2.2,4.8,4.6,4.8,2.5-.5,3-1.5c.2,1.9-.5,3.7-2.8,3.7s-2.1-.6-2.5-1.5h0l.1-.1ZM240.1,48.9h-2.4v9.3h2.4v-9.3h0ZM237.3,45.3c0,.9.7,1.5,1.6,1.5s1.5-.6,1.5-1.5-.7-1.4-1.5-1.4-1.6.6-1.6,1.4h0ZM251.8,53.5c0-2.9-2.1-4.8-4.7-4.8s-4.8,1.9-4.8,4.8,2.2,4.9,4.8,4.9,3.5-.6,4.3-2.2c-.6-.3-1.3-.7-1.9-1-.5.8-1.4,1.2-2.3,1.2-1.4,0-2.4-.7-2.6-2h7.1v-.8h0l.1-.1ZM244.6,52.7c.2-1.3,1.2-2,2.4-2s2.1.7,2.3,2h-4.8.1ZM257.3,54.6c.7.2,1,.4,1,.9s-.5.9-1.2.9c-.9,0-1.6-.5-1.7-1.2h-2.3c0,2,1.9,3.1,3.7,3.1s3.8-.9,3.8-2.9-.3-2.2-2.4-2.8l-1.5-.4c-.5-.1-1-.4-1-.8,0-.7.6-.9,1.2-.9s1.2.3,1.2.9h2.3c-.1-2.1-1.9-2.9-3.6-2.9s-3.4,1.2-3.4,2.8.2,2.2,2.6,2.8l1.3.3h0v.2Z"/>
  <polygon class="cls-2" points="0 42.6 0 16.9 21.1 0 42.2 16.9 42.2 42.6 21.1 27.5 0 42.6"/>
</svg>