<?xml version="1.0" encoding="UTF-8"?>
<svg id="Layer_1" xmlns="http://www.w3.org/2000/svg" version="1.1" viewBox="0 0 267.6 64.6">
  <!-- Generator: Adobe Illustrator 29.0.0, SVG Export Plug-In . SVG Version: 2.1.0 Build 186)  -->
  <defs>
    <style>
      .st0 {
        fill-rule: evenodd;
      }

      .st0, .st1 {
        fill: #383934;
      }

      .st2 {
        fill: #fc5306;
      }

      .st3 {
        fill: #979491;
      }
    </style>
  </defs>
  <g>
    <path class="st0" d="M70.5,38.6h5.9v-22.6h-5.9v2.8c-1.7-2.5-4.9-3.3-7-3.3-6,0-11.5,4.6-11.5,11.7s5.6,11.8,11.5,11.8,5.6-1,7-3.3v2.9h0ZM58.1,27.3c0-3.7,3-6.1,6.2-6.1s6.2,2.2,6.2,6.1-2.9,6.1-6.2,6.1-6.2-2.4-6.2-6.1Z"/>
    <rect class="st1" x="81.4" y="3.8" width="5.9" height="34.9"/>
    <path class="st0" d="M129.4,33.3c-3.3,0-5.9-2.4-5.9-6s2.6-5.9,5.9-5.9,2.8.5,3.8,1.3l2.2-5.6c-1.8-1-3.8-1.5-6-1.5-6.4,0-11.8,4.5-11.8,11.7s5.4,11.8,11.8,11.8,11.8-4.7,11.8-11.8-.6-4.5-1.6-6.2l-5.5,2.4c.8,1,1.3,2.3,1.3,3.8,0,3.7-2.6,6.1-5.9,6.1h0Z"/>
    <polygon class="st0" points="154.5 7.4 148.6 7.4 148.6 16 144.5 16 144.5 20.8 148.6 20.8 148.6 38.6 154.5 38.6 154.5 20.8 159.3 20.8 159.3 16 154.5 16 154.5 7.4"/>
    <path class="st0" d="M168.6,26.6c0-3.9,2.9-5.3,5.4-5.3s4.8,1.8,4.8,5v12.3h5.9v-12.6c0-6.6-3.2-10.5-9.1-10.5s-6,1.3-7,4V3.8h-5.9v34.9h5.9v-12h0Z"/>
    <path class="st0" d="M194.9,30.6c0-6,1.6-9.6,5.7-9.6s2,0,3.4.6l1-5.3c-.9-.5-2.1-.8-3.7-.8-2.6,0-5.2,1.7-6.4,5.8v-5.3h-5.9v22.6h5.9v-8h0Z"/>
    <path class="st0" d="M223.1,28.1c0,3.9-2.4,5.3-4.9,5.3s-4.3-1.3-4.3-5v-12.3h-5.9v13.4c0,6.4,3.5,9.7,8.9,9.7s5-1.3,6.2-3.7v3.2h5.9v-22.6h-5.9v12h0Z"/>
    <path class="st0" d="M242.9,30c1.7.4,2.5,1,2.5,2.1,0,1.3-1.3,2.2-2.9,2.3-2.2.2-4-1.3-4.2-2.9h-5.5c.1,4.8,4.6,7.6,9.1,7.6s9.2-2.3,9.2-7-.7-5.3-5.9-6.8l-3.8-.9c-1.3-.3-2.4-1-2.4-1.9,0-1.7,1.4-2.2,2.9-2.2s2.9.6,3.1,2.3h5.6c-.2-5.2-4.5-7.1-8.8-7.1s-8.3,3-8.3,6.7.5,5.4,6.4,6.9l3.1.8h0Z"/>
    <polygon class="st0" points="262.9 7.4 257 7.4 257 16 252.9 16 252.9 20.8 257 20.8 257 38.6 262.9 38.6 262.9 20.8 267.6 20.8 267.6 16 262.9 16 262.9 7.4"/>
    <path class="st0" d="M102.7,16.6c-6.8,0-11.6,5.2-11.6,11.3s5.1,11.3,11.6,11.3,11.5-4.5,11.5-11.3-1.7-5.8-1.7-5.8l1.5-.5v-4.3h-7.6s-1.6-.6-3.7-.6h0ZM102.6,21.7c3.6,0,6.2,2.8,6.2,6.1s-2.9,6.2-6.1,6.2-6.2-3-6.2-6.1,2.7-6.1,6.1-6.1h0Z"/>
    <path class="st0" d="M108.8,40.1c0,3.6-2.9,6.2-6.1,6.2s-6.2-3-6.2-6.2h-5.4c0,6.7,5.1,11.3,11.6,11.3s11.5-4.5,11.5-11.3c0,0-5.4,0-5.4,0Z"/>
    <path class="st2" d="M21.5,0c7.1,5.9,14.3,11.8,21.5,17.7v25.5c-7.2-5-14.3-10-21.5-15-7.1,5.1-14.3,10.1-21.5,15.2v-25.7C7.2,11.8,14.3,5.9,21.5,0Z"/>
  </g>
  <g>
    <path class="st3" d="M144.7,46.1h10.3v2.3h-3.9v11.4h-2.6v-11.4h-3.9v-2.3h0Z"/>
    <path class="st3" d="M164.3,56.1h-7.1c.2,1.3,1.2,2,2.6,2s1.9-.4,2.3-1.2c.6.3,1.2.7,1.9,1-.9,1.6-2.6,2.3-4.4,2.3-2.7,0-4.8-2-4.8-4.9s2.2-4.8,4.8-4.8,4.7,1.9,4.7,4.8,0,.6,0,.8h0ZM162,54.4c-.2-1.3-1.1-2-2.3-2s-2.3.7-2.5,2h4.8Z"/>
    <path class="st3" d="M170.8,50.4c1.6,0,3,.6,3.9,1.8l-1.9,1.5c-.5-.6-1.2-.9-1.9-.9-1.4,0-2.6,1-2.6,2.5s1.3,2.6,2.6,2.6,1.5-.3,1.9-.9l2,1.4c-.9,1.2-2.3,1.8-3.9,1.8-2.7,0-5-2-5-4.9s2.4-4.8,5-4.8h0Z"/>
    <path class="st3" d="M179.2,59.9h-2.4v-14.4h2.4v6.5c.4-1.1,2-1.6,2.9-1.6,2.4,0,3.8,1.6,3.8,4.3v5.2h-2.4v-5.1c0-1.3-1-2.1-2-2.1s-2.2.6-2.2,2.2v5h0Z"/>
    <path class="st3" d="M191,59.9h-2.4v-9.3h2.4v1.4c.5-1,1.7-1.6,2.8-1.6,2.2,0,3.5,1.4,3.5,4v5.5h-2.4v-5.1c0-1.4-.7-2.1-1.8-2.1s-2,.6-2,2.2v5Z"/>
    <path class="st3" d="M199.3,55.2c0-3,2.2-4.8,4.9-4.8s4.9,1.9,4.9,4.8-2.2,4.9-4.9,4.9-4.9-1.9-4.9-4.9ZM206.6,55.2c0-1.5-1.1-2.4-2.4-2.4s-2.4.9-2.4,2.4,1.1,2.5,2.4,2.5,2.4-1,2.4-2.5Z"/>
    <path class="st3" d="M211.2,45.5h2.4v14.4h-2.4v-14.4Z"/>
    <path class="st3" d="M215.8,55.2c0-3,2.2-4.8,4.9-4.8s4.9,1.9,4.9,4.8-2.2,4.9-4.9,4.9-4.9-1.9-4.9-4.9ZM223.1,55.2c0-1.5-1.1-2.4-2.4-2.4s-2.4.9-2.4,2.4,1.1,2.5,2.4,2.5,2.4-1,2.4-2.5Z"/>
    <path class="st3" d="M232,62.4c2.4,0,3-1.8,2.8-3.7-.5.9-1.8,1.5-3,1.5-2.4,0-4.7-1.9-4.7-4.8s2.2-4.9,4.7-4.9,2.4.5,3,1.5v-1.3h2.4v8c0,4.2-2,6-5.2,6s-3.6-1.1-4.5-2.8c.5-.3,1.4-.7,2-1,.4.9,1.5,1.5,2.5,1.5h0ZM232.2,52.7c-1.4,0-2.5,1-2.5,2.5s1.2,2.6,2.5,2.6,2.5-1,2.5-2.6-1.2-2.5-2.5-2.5Z"/>
    <path class="st3" d="M241.2,45.5c.9,0,1.5.6,1.5,1.5s-.7,1.5-1.5,1.5-1.6-.6-1.6-1.5.7-1.5,1.6-1.5ZM242.4,59.9h-2.4v-9.3h2.4v9.3Z"/>
    <path class="st3" d="M254.1,56.1h-7.1c.2,1.3,1.2,2,2.6,2s1.9-.4,2.3-1.2c.6.3,1.2.7,1.9,1-.9,1.6-2.6,2.3-4.4,2.3-2.7,0-4.8-2-4.8-4.9s2.2-4.8,4.8-4.8,4.7,1.9,4.7,4.8,0,.6,0,.8h0ZM251.7,54.4c-.2-1.3-1.1-2-2.3-2s-2.3.7-2.5,2h4.8Z"/>
    <path class="st3" d="M258.4,56c-2.4-.6-2.6-1.8-2.6-2.9s1.6-2.8,3.4-2.8,3.5.8,3.6,2.9h-2.3c0-.7-.7-1-1.3-1s-1.2.2-1.2.9.4.6,1,.8l1.6.4c2.2.6,2.4,2,2.4,2.8,0,1.9-1.9,2.9-3.8,2.9s-3.7-1.1-3.8-3.1h2.3c0,.7.8,1.2,1.7,1.2.7,0,1.2-.4,1.2-.9,0-.5-.3-.7-1-.9l-1.3-.3h0Z"/>
  </g>
</svg>