<?xml version="1.0" encoding="UTF-8"?>
<svg id="Layer_1" data-name="Layer 1" xmlns="http://www.w3.org/2000/svg" viewBox="0 0 269.15 58.04">
  <defs>
    <style>
      .cls-1 {
        fill: #1a1a18;
        font-family: SofiaPro-SemiBold, 'Sofia Pro';
        font-size: 29.43px;
        font-weight: 600;
      }

      .cls-2, .cls-3 {
        fill: #4a4a47;
      }

      .cls-4 {
        fill: #d94b1f;
      }

      .cls-3 {
        fill-rule: evenodd;
      }

      .cls-5 {
        letter-spacing: 0em;
      }
    </style>
  </defs>
  <path class="cls-4" d="M12.27,18.02c4.02,3.3,8.03,6.61,12.05,9.91.08.06.15.12.23.19v14.57c-4.09-2.86-8.18-5.71-12.27-8.57-4.09,2.9-8.18,5.8-12.27,8.69v-14.7c4.09-3.37,8.18-6.73,12.27-10.1Z"/>
  <path class="cls-3" d="M41.95,39.55h3.56v-13.64h-3.56v1.69c-1.02-1.49-2.98-1.99-4.23-1.99-3.59,0-6.95,2.74-6.95,7.09s3.36,7.09,6.95,7.09c1.31,0,3.39-.61,4.23-2.01v1.75h0ZM34.45,32.71c0-2.22,1.78-3.68,3.77-3.68,1.87,0,3.74,1.34,3.74,3.68s-1.78,3.68-3.74,3.68-3.77-1.46-3.77-3.68Z"/>
  <rect class="cls-2" x="48.52" y="18.49" width="3.56" height="21.05"/>
  <path class="cls-3" d="M78.61,36.5c-1.99,0-3.56-1.43-3.56-3.65s1.58-3.56,3.56-3.56c.88,0,1.68.27,2.3.76l1.31-3.36c-1.06-.59-2.3-.91-3.61-.91-3.85,0-7.09,2.74-7.09,7.07s3.24,7.12,7.09,7.12,7.09-2.83,7.09-7.12c0-1.44-.36-2.7-.98-3.75l-3.32,1.44c.48.59.77,1.38.77,2.31,0,2.22-1.58,3.65-3.56,3.65Z"/>
  <polygon class="cls-3" points="93.22 21 89.68 21 89.68 26.2 87.2 26.2 87.2 29.06 89.68 29.06 89.68 39.83 93.22 39.83 93.22 29.06 96.11 29.06 96.11 26.2 93.22 26.2 93.22 21"/>
  <path class="cls-3" d="M102.02,32.28c0-2.37,1.78-3.18,3.27-3.18s2.89,1.08,2.89,3.04v7.42h3.56v-7.59c0-4-1.96-6.34-5.49-6.34-1.34,0-3.62.76-4.23,2.39v-9.52h-3.56v21.05h3.56v-7.27Z"/>
  <path class="cls-3" d="M118.19,34.87c0-3.62.99-5.78,3.42-5.78.35,0,1.23,0,2.07.38l.61-3.21c-.55-.32-1.28-.5-2.25-.5-1.55,0-3.15,1.02-3.85,3.5v-3.21h-3.56v13.64h3.56v-4.82Z"/>
  <path class="cls-3" d="M135.79,33.18c0,2.36-1.46,3.18-2.95,3.18-1.26,0-2.6-.82-2.6-3.04v-7.42h-3.59v8.06c0,3.85,2.13,5.87,5.37,5.87,1.37,0,3.01-.76,3.77-2.22v1.93h3.56v-13.64h-3.56v7.27Z"/>
  <path class="cls-3" d="M148.48,34.47c1.02.23,1.52.58,1.49,1.28,0,.79-.76,1.34-1.78,1.37-1.31.09-2.42-.76-2.51-1.72h-3.33c.09,2.92,2.8,4.58,5.49,4.58,2.83,0,5.58-1.4,5.58-4.2,0-1.11-.41-3.21-3.56-4.09l-2.28-.55c-.79-.2-1.43-.58-1.43-1.14,0-1.02.82-1.34,1.72-1.34.82,0,1.75.38,1.84,1.4h3.39c-.15-3.12-2.72-4.29-5.31-4.29s-5.02,1.84-5.02,4.06c0,1.58.32,3.24,3.85,4.18l1.87.47Z"/>
  <polygon class="cls-3" points="160.93 21 157.4 21 157.4 26.2 154.92 26.2 154.92 29.06 157.4 29.06 157.4 39.83 160.93 39.83 160.93 29.06 163.82 29.06 163.82 26.2 160.93 26.2 160.93 21"/>
  <path class="cls-3" d="M62.06,26.24c-4.12,0-6.98,3.17-6.98,6.8,0,4.05,3.1,6.84,7.01,6.84s6.92-2.74,6.92-6.85c0-2.42-1.05-3.49-1.05-3.49l.89-.31v-2.61h-4.57s-.99-.38-2.23-.38h0ZM62.02,29.35c2.16,0,3.75,1.68,3.75,3.71,0,2.15-1.75,3.72-3.69,3.72-2.29,0-3.73-1.81-3.73-3.71,0-2.08,1.63-3.71,3.67-3.71h0Z"/>
  <path class="cls-3" d="M65.76,40.42c0,2.15-1.75,3.73-3.69,3.73-2.29,0-3.73-1.83-3.73-3.73h-3.26c0,4.05,3.1,6.84,7.01,6.84s6.92-2.73,6.92-6.84h-3.24Z"/>
  <rect class="cls-2" x="172.83" width="1.16" height="58.04"/>
  <text class="cls-1" transform="translate(193.09 40.4) scale(1.03 1)"><tspan class="cls-5" x="0" y="0">L</tspan><tspan x="14.71" y="0">ogin</tspan></text>
</svg>