<?xml version="1.0" encoding="UTF-8"?>
<svg id="Layer_1" data-name="Layer 1" xmlns="http://www.w3.org/2000/svg" viewBox="0 0 247.63 44.99">
  <defs>
    <style>
      .cls-1 {
        fill-rule: evenodd;
      }

      .cls-1, .cls-2 {
        fill: #22231e;
      }

      .cls-3 {
        fill: #e94f18;
      }
    </style>
  </defs>
  <path class="cls-3" d="M18.88,0c6.18,5.08,12.35,10.17,18.53,15.25.12.1.23.19.35.29v22.42c-6.29-4.39-12.59-8.78-18.88-13.18-6.29,4.46-12.59,8.92-18.88,13.37V15.54C6.29,10.36,12.59,5.18,18.88,0Z"/>
  <path class="cls-1" d="M64.54,33.12h5.48V12.15h-5.48v2.61c-1.57-2.29-4.58-3.05-6.51-3.05-5.52,0-10.69,4.22-10.69,10.92s5.17,10.92,10.69,10.92c2.02,0,5.21-.94,6.51-3.1v2.7h0ZM53,22.61c0-3.41,2.74-5.66,5.79-5.66,2.87,0,5.75,2.07,5.75,5.66s-2.74,5.66-5.75,5.66-5.79-2.25-5.79-5.66Z"/>
  <rect class="cls-2" x="74.64" y=".74" width="5.48" height="32.39"/>
  <path class="cls-1" d="M119.21,28.18c-3.05,0-5.48-2.2-5.48-5.61s2.43-5.48,5.48-5.48c1.36,0,2.59.42,3.54,1.17l2.02-5.17c-1.64-.9-3.54-1.39-5.56-1.39-5.93,0-10.92,4.22-10.92,10.87s4.99,10.96,10.92,10.96,10.92-4.36,10.92-10.96c0-2.21-.55-4.16-1.51-5.77l-5.11,2.21c.74.91,1.19,2.12,1.19,3.56,0,3.41-2.43,5.61-5.48,5.61Z"/>
  <polygon class="cls-1" points="142.51 4.15 137.08 4.15 137.08 12.15 133.26 12.15 133.26 16.55 137.08 16.55 137.08 33.12 142.51 33.12 142.51 16.55 146.96 16.55 146.96 12.15 142.51 12.15 142.51 4.15"/>
  <path class="cls-1" d="M155.62,21.94c0-3.64,2.74-4.9,5.03-4.9s4.45,1.66,4.45,4.67v11.41h5.48v-11.68c0-6.15-3.01-9.75-8.44-9.75-2.07,0-5.57,1.17-6.51,3.68V.74h-5.48v32.39h5.48v-11.18Z"/>
  <path class="cls-1" d="M180.02,25.71c0-5.57,1.53-8.89,5.26-8.89.54,0,1.89,0,3.19.58l.94-4.94c-.85-.49-1.98-.76-3.46-.76-2.38,0-4.85,1.57-5.93,5.39v-4.94h-5.48v20.98h5.48v-7.41Z"/>
  <path class="cls-1" d="M206.27,23.33c0,3.64-2.25,4.9-4.54,4.9-1.93,0-4-1.26-4-4.67v-11.41h-5.53v12.4c0,5.93,3.28,9.03,8.27,9.03,2.11,0,4.63-1.17,5.79-3.41v2.96h5.48V12.15h-5.48v11.18Z"/>
  <path class="cls-1" d="M224.68,25.08c1.57.36,2.34.9,2.29,1.98,0,1.21-1.17,2.07-2.74,2.11-2.02.13-3.73-1.17-3.86-2.65h-5.12c.13,4.49,4.31,7.05,8.44,7.05,4.36,0,8.58-2.16,8.58-6.47,0-1.71-.63-4.94-5.48-6.29l-3.5-.85c-1.21-.31-2.2-.9-2.2-1.75,0-1.57,1.26-2.07,2.65-2.07,1.26,0,2.7.58,2.83,2.16h5.21c-.22-4.81-4.18-6.6-8.18-6.6s-7.73,2.83-7.73,6.24c0,2.43.49,4.99,5.93,6.42l2.87.72Z"/>
  <polygon class="cls-1" points="243.18 4.15 237.75 4.15 237.75 12.15 233.93 12.15 233.93 16.55 237.75 16.55 237.75 33.12 243.18 33.12 243.18 16.55 247.63 16.55 247.63 12.15 243.18 12.15 243.18 4.15"/>
  <path class="cls-1" d="M94.4,12.66c-6.34,0-10.73,4.88-10.73,10.46,0,6.23,4.78,10.52,10.78,10.52s10.65-4.21,10.65-10.54c0-3.72-1.61-5.38-1.61-5.38l1.37-.47v-4.02h-7.03s-1.52-.58-3.43-.58h0ZM94.34,17.43c3.32,0,5.76,2.58,5.76,5.7,0,3.31-2.69,5.72-5.67,5.72-3.52,0-5.74-2.79-5.74-5.71,0-3.2,2.5-5.71,5.65-5.71h0Z"/>
  <path class="cls-1" d="M100.07,34.47c0,3.31-2.69,5.74-5.67,5.74-3.52,0-5.75-2.82-5.75-5.74h-5.02c0,6.23,4.78,10.52,10.78,10.52s10.65-4.2,10.65-10.52h-4.99Z"/>
</svg>