<?xml version="1.0" encoding="UTF-8"?>
<svg id="Layer_1" data-name="Layer 1" xmlns="http://www.w3.org/2000/svg" viewBox="0 0 261.7 51.42">
  <defs>
    <style>
      .cls-1 {
        fill: #e74810;
      }

      .cls-2, .cls-3 {
        fill: #4a4a47;
      }

      .cls-3 {
        fill-rule: evenodd;
      }
    </style>
  </defs>
  <path class="cls-1" d="M20.26,0c6.63,5.47,13.26,10.94,19.89,16.41.13.1.25.21.38.31v24.13c-6.75-4.73-13.51-9.45-20.26-14.18-6.75,4.8-13.51,9.59-20.26,14.39v-24.34C6.75,11.15,13.51,5.57,20.26,0Z"/>
  <rect class="cls-2" x="81.22" y="4.03" width="6.23" height="33.9"/>
  <path class="cls-3" d="M128.65,32.68c-3.47,0-6.23-2.46-6.23-6.27s2.76-6.12,6.23-6.12c1.54,0,2.94.46,4.02,1.31l2.3-5.77c-1.86-1.01-4.03-1.56-6.32-1.56-6.74,0-12.42,4.71-12.42,12.13s5.67,12.23,12.42,12.23,12.42-4.86,12.42-12.23c0-2.47-.63-4.64-1.72-6.44l-5.81,2.47c.85,1.02,1.35,2.37,1.35,3.97,0,3.81-2.76,6.27-6.23,6.27Z"/>
  <polygon class="cls-3" points="150.97 4.03 144.79 4.03 144.79 13.59 140.45 13.59 140.45 18.84 144.79 18.84 144.79 38.64 150.97 38.64 150.97 18.84 156.03 18.84 156.03 13.59 150.97 13.59 150.97 4.03"/>
  <path class="cls-3" d="M163.86,26.58c0-3.87,3.12-5.21,5.72-5.21s5.06,1.77,5.06,4.97v12.14h6.23v-12.42c0-6.55-3.42-10.37-9.61-10.37-2.35,0-6.34,1.24-7.41,3.92V4.03h-6.23v34.45h6.23v-11.9Z"/>
  <path class="cls-3" d="M189.57,30.7c0-6.04,1.74-9.65,5.98-9.65.61,0,2.15,0,3.63.63l1.07-5.36c-.97-.54-2.25-.83-3.93-.83-2.71,0-5.52,1.71-6.74,5.85v-5.36h-6.23v22.76h6.23v-8.04Z"/>
  <path class="cls-3" d="M218.33,27.93c0,3.89-2.55,5.24-5.16,5.24-2.2,0-4.55-1.35-4.55-5v-12.21h-6.28v13.27c0,6.35,3.73,9.66,9.4,9.66,2.4,0,5.26-1.25,6.59-3.65v3.17h6.23V15.96h-6.23v11.97Z"/>
  <path class="cls-3" d="M237.13,29.66c1.79.39,2.66.97,2.61,2.14,0,1.32-1.33,2.24-3.12,2.29-2.3.15-4.24-1.27-4.39-2.88h-5.82c.15,4.87,4.9,7.65,9.61,7.65,4.96,0,9.76-2.34,9.76-7.02,0-1.85-.72-5.36-6.23-6.82l-3.99-.93c-1.38-.34-2.5-.97-2.5-1.9,0-1.71,1.43-2.24,3.01-2.24,1.43,0,3.07.63,3.22,2.34h5.93c-.26-5.21-4.75-7.16-9.3-7.16s-8.79,3.07-8.79,6.77c0,2.63.56,5.41,6.74,6.97l3.27.78Z"/>
  <polygon class="cls-3" points="256.65 4.03 250.46 4.03 250.46 13.52 246.12 13.52 246.12 18.75 250.46 18.75 250.46 38.41 256.65 38.41 256.65 18.75 261.7 18.75 261.7 13.52 256.65 13.52 256.65 4.03"/>
  <path class="cls-3" d="M101.96,15.07c-7.21,0-12.21,5.44-12.21,11.67,0,6.95,5.43,11.75,12.26,11.75s12.11-4.7,12.11-11.76c0-4.16-1.83-6-1.83-6l1.56-.53v-4.48h-7.99s-1.73-.65-3.9-.65h0ZM101.9,20.4c3.78,0,6.56,2.88,6.56,6.37,0,3.69-3.06,6.39-6.45,6.39-4,0-6.52-3.11-6.52-6.38,0-3.58,2.85-6.38,6.42-6.38h0Z"/>
  <path class="cls-3" d="M108.45,39.4c0,3.78-3.06,6.56-6.45,6.56-4,0-6.53-3.22-6.53-6.56h-5.71c0,7.12,5.43,12.03,12.26,12.03s12.11-4.8,12.11-12.03h-5.68Z"/>
  <path class="cls-2" d="M69.75,29.61h-13.2l-3.24,8.18h-6.99L59.58,4.03h7.09l13.25,33.76h-6.93l-3.24-8.18ZM58.75,24.12h8.83l-4.47-12.88-4.37,12.88Z"/>
</svg>