<?xml version="1.0" encoding="UTF-8"?>
<svg id="Layer_1" data-name="Layer 1" xmlns="http://www.w3.org/2000/svg" viewBox="0 0 281.47 55.12">
  <defs>
    <style>
      .cls-1 {
        fill: #e74810;
      }

      .cls-2, .cls-3 {
        fill: #4a4a47;
      }

      .cls-3 {
        fill-rule: evenodd;
      }
    </style>
  </defs>
  <path class="cls-1" d="M20.7,0c6.77,5.69,13.55,11.38,20.32,17.08.13.11.26.21.38.32v25.11c-6.9-4.92-13.8-9.84-20.7-14.76-6.9,4.99-13.8,9.98-20.7,14.98v-25.33C6.9,11.6,13.8,5.8,20.7,0Z"/>
  <rect class="cls-2" x="83.04" y="4.81" width="6.23" height="34.75"/>
  <path class="cls-3" d="M135.62,33.79c-3.75,0-6.73-2.66-6.73-6.78s2.98-6.62,6.73-6.62c1.66,0,3.18.5,4.34,1.42l2.48-6.24c-2.01-1.09-4.35-1.68-6.82-1.68-7.28,0-13.4,5.1-13.4,13.13s6.12,13.23,13.4,13.23,13.4-5.26,13.4-13.23c0-2.67-.68-5.02-1.85-6.96l-6.27,2.67c.91,1.1,1.46,2.56,1.46,4.3,0,4.12-2.98,6.78-6.73,6.78Z"/>
  <path class="cls-3" d="M174.25,26.47c0-4.36,3.38-5.87,6.21-5.87s5.49,1.99,5.49,5.6v13.39h6.76v-13.71c0-7.37-3.71-11.68-10.42-11.68-2.55,0-6.87,1.4-8.04,4.41V4.84h-6.76v34.75h6.76v-13.12Z"/>
  <path class="cls-3" d="M202.26,31.03c0-6.72,1.89-10.72,6.52-10.72.67,0,2.34,0,3.96.7l1.17-5.96c-1.06-.6-2.45-.92-4.29-.92-2.95,0-6.02,1.9-7.35,6.5v-5.96h-6.8v24.92h6.8v-8.56Z"/>
  <path class="cls-3" d="M233.57,28.02c0,4.34-2.76,5.84-5.57,5.84-2.37,0-4.91-1.5-4.91-5.58v-13.62h-6.79v14.8c0,7.08,4.03,10.78,10.15,10.78,2.59,0,5.68-1.39,7.12-4.07v3.54h6.73V14.67h-6.73v13.35Z"/>
  <path class="cls-3" d="M254.13,30.01c1.95.43,2.9,1.08,2.84,2.38,0,1.46-1.45,2.49-3.4,2.55-2.51.16-4.62-1.41-4.79-3.2h-6.35c.17,5.42,5.35,8.5,10.48,8.5,5.4,0,10.64-2.6,10.64-7.8,0-2.06-.78-5.96-6.8-7.58l-4.35-1.03c-1.5-.38-2.73-1.08-2.73-2.11,0-1.9,1.56-2.49,3.29-2.49,1.56,0,3.34.7,3.51,2.6h6.46c-.28-5.79-5.18-7.96-10.14-7.96s-9.58,3.41-9.58,7.53c0,2.92.61,6.01,7.35,7.74l3.57.87Z"/>
  <path class="cls-3" d="M275.95,4.69h-6.74v9.84h-4.74v5.81h4.74v19.69h6.74v-19.69h5.52v-5.81h-5.52V4.69Z"/>
  <path class="cls-3" d="M112.79,42.1c.02.54.04,2.59-1.49,4.39-1.86,2.17-4.53,2.27-5.12,2.28-1.85.02-3.17-.73-3.46-.89-.37-.22-1.19-.75-1.9-1.71-1.22-1.64-1.27-3.4-1.25-4.07-2.19.02-4.37.04-6.56.05,0,7.67,5.87,12.96,13.26,12.96s13.09-5.17,13.09-12.96c-2.19-.02-4.37-.04-6.56-.05Z"/>
  <path class="cls-2" d="M71.57,31.13h-13.2l-3.24,8.42h-6.99L61.4,4.81h7.09l13.25,34.75h-6.93l-3.24-8.42ZM60.57,25.48h8.83l-4.47-13.26-4.37,13.26Z"/>
  <path class="cls-3" d="M160.5,4.84h-6.74v9.76h-4.74v5.81h4.74v19.19h6.74v-19.19h5.52v-5.81h-5.52V4.84Z"/>
  <path class="cls-3" d="M119.7,27.03c0-2.04-.39-3.59-.83-4.67-.27-.74-.6-1.45-.99-2.1l1.52-.51v-5.01h-8.52c-1.47-.49-3.06-.76-4.71-.76-7.34,0-13.51,5.08-13.51,13.08s6.17,13.19,13.51,13.19c5.97,0,11.17-3.48,12.9-9.06.41-1.28.63-2.68.63-4.16ZM99.39,27.06c0-4.05,3-6.6,6.78-6.6s6.78,2.54,6.78,6.6-3,6.76-6.78,6.76-6.78-2.65-6.78-6.76Z"/>
</svg>