<?xml version="1.0" encoding="UTF-8"?>
<svg id="Layer_1" data-name="Layer 1" xmlns="http://www.w3.org/2000/svg" viewBox="0 0 279.67 54.79">
  <defs>
    <style>
      .cls-1 {
        fill: #e74810;
      }

      .cls-2, .cls-3 {
        fill: #4a4a47;
      }

      .cls-3 {
        fill-rule: evenodd;
      }
    </style>
  </defs>
  <path class="cls-1" d="M20.7,0c6.77,5.69,13.55,11.38,20.32,17.08.13.11.26.21.38.32v25.11c-6.9-4.92-13.8-9.84-20.7-14.76-6.9,4.99-13.8,9.98-20.7,14.98v-25.33C6.9,11.6,13.8,5.8,20.7,0Z"/>
  <rect class="cls-2" x="82.04" y="4.81" width="6.23" height="34.75"/>
  <path class="cls-3" d="M133.69,33.79c-3.69,0-6.63-2.62-6.63-6.68s2.93-6.52,6.63-6.52c1.64,0,3.13.5,4.28,1.4l2.44-6.15c-1.98-1.08-4.29-1.66-6.72-1.66-7.17,0-13.2,5.02-13.2,12.93s6.03,13.04,13.2,13.04,13.2-5.18,13.2-13.04c0-2.63-.67-4.95-1.83-6.86l-6.18,2.63c.9,1.09,1.43,2.52,1.43,4.23,0,4.06-2.93,6.68-6.63,6.68Z"/>
  <path class="cls-3" d="M172.45,26.5c0-4.36,3.38-5.87,6.21-5.87s5.49,1.99,5.49,5.6v13.39h6.76v-13.71c0-7.37-3.71-11.68-10.42-11.68-2.55,0-6.87,1.4-8.04,4.41V4.87h-6.76v34.75h6.76v-13.12Z"/>
  <path class="cls-3" d="M200.46,31.06c0-6.72,1.89-10.72,6.52-10.72.67,0,2.34,0,3.96.7l1.17-5.96c-1.06-.6-2.45-.92-4.29-.92-2.95,0-6.02,1.9-7.35,6.5v-5.96h-6.8v24.92h6.8v-8.56Z"/>
  <path class="cls-3" d="M231.78,28.05c0,4.34-2.76,5.84-5.57,5.84-2.37,0-4.91-1.5-4.91-5.58v-13.62h-6.79v14.8c0,7.08,4.03,10.78,10.15,10.78,2.59,0,5.68-1.39,7.12-4.07v3.54h6.73V14.7h-6.73v13.35Z"/>
  <path class="cls-3" d="M252.34,30.04c1.95.43,2.9,1.08,2.84,2.38,0,1.46-1.45,2.49-3.4,2.55-2.51.16-4.62-1.41-4.79-3.2h-6.35c.17,5.42,5.35,8.5,10.48,8.5,5.4,0,10.64-2.6,10.64-7.8,0-2.06-.78-5.96-6.8-7.58l-4.35-1.03c-1.5-.38-2.73-1.08-2.73-2.11,0-1.9,1.56-2.49,3.29-2.49,1.56,0,3.34.7,3.51,2.6h6.46c-.28-5.79-5.18-7.96-10.14-7.96s-9.58,3.41-9.58,7.53c0,2.92.61,6.01,7.35,7.74l3.57.87Z"/>
  <path class="cls-3" d="M274.16,4.72h-6.74v9.84h-4.74v5.81h4.74v19.69h6.74v-19.69h5.52v-5.81h-5.52V4.72Z"/>
  <path class="cls-3" d="M111.2,41.97c.02.53.04,2.55-1.47,4.32-1.83,2.14-4.47,2.24-5.04,2.24-1.82.02-3.12-.72-3.41-.88-.37-.21-1.18-.74-1.88-1.68-1.2-1.62-1.25-3.35-1.23-4.01-2.15.02-4.31.03-6.46.05,0,7.56,5.78,12.77,13.06,12.77s12.9-5.1,12.9-12.77c-2.15-.02-4.31-.03-6.46-.05Z"/>
  <path class="cls-2" d="M70.57,31.13h-13.2l-3.24,8.42h-6.99L60.4,4.81h7.09l13.25,34.75h-6.93l-3.24-8.42ZM59.57,25.48h8.83l-4.47-13.26-4.37,13.26Z"/>
  <path class="cls-3" d="M158.39,5.12h-6.67v9.66h-4.69v5.75h4.69v18.99h6.67v-18.99h5.46v-5.75h-5.46V5.12Z"/>
  <path class="cls-3" d="M118.01,27.12c0-2.01-.39-3.53-.82-4.6-.27-.73-.59-1.42-.97-2.07l1.49-.51v-4.93h-8.39c-1.45-.48-3.01-.75-4.64-.75-7.23,0-13.31,5.01-13.31,12.89s6.08,12.99,13.31,12.99c5.88,0,11-3.42,12.71-8.92.4-1.26.62-2.64.62-4.1ZM98,27.15c0-3.99,2.96-6.5,6.68-6.5s6.68,2.5,6.68,6.5-2.96,6.66-6.68,6.66-6.68-2.61-6.68-6.66Z"/>
</svg>