<?xml version="1.0" encoding="UTF-8"?>
<svg id="Layer_1" data-name="Layer 1" xmlns="http://www.w3.org/2000/svg" viewBox="0 0 276.45 54.95">
  <defs>
    <style>
      .cls-1 {
        fill: #e74810;
      }

      .cls-2, .cls-3 {
        fill: #4a4a47;
      }

      .cls-3 {
        fill-rule: evenodd;
      }
    </style>
  </defs>
  <path class="cls-1" d="M20.7,0c6.77,5.69,13.55,11.38,20.32,17.08.13.11.26.21.38.32v25.11c-6.9-4.92-13.8-9.84-20.7-14.76-6.9,4.99-13.8,9.98-20.7,14.98v-25.33C6.9,11.6,13.8,5.8,20.7,0Z"/>
  <rect class="cls-2" x="82.04" y="4.81" width="6.23" height="34.75"/>
  <path class="cls-3" d="M132.61,33.79c-3.63,0-6.51-2.64-6.51-6.73s2.88-6.57,6.51-6.57c1.61,0,3.07.5,4.2,1.41l2.4-6.2c-1.95-1.08-4.21-1.67-6.6-1.67-7.04,0-12.96,5.06-12.96,13.02s5.92,13.13,12.96,13.13,12.96-5.22,12.96-13.13c0-2.65-.66-4.98-1.79-6.91l-6.07,2.65c.88,1.09,1.41,2.54,1.41,4.27,0,4.09-2.88,6.73-6.51,6.73Z"/>
  <path class="cls-3" d="M170.67,26.33c0-4.41,3.34-5.94,6.13-5.94s5.41,2.02,5.41,5.66v13.84h6.67v-14.16c0-7.46-3.66-11.82-10.28-11.82-2.52,0-6.78,1.42-7.93,4.47V4.44h-6.67v35.45h6.67v-13.56Z"/>
  <path class="cls-3" d="M198.3,30.94c0-6.8,1.87-10.85,6.43-10.85.66,0,2.31,0,3.9.71l1.15-6.03c-1.04-.6-2.42-.93-4.23-.93-2.91,0-5.94,1.92-7.26,6.58v-6.03h-6.71v25.6h6.71v-9.04Z"/>
  <path class="cls-3" d="M229.25,28.02c0,4.44-2.75,5.97-5.55,5.97-2.36,0-4.89-1.53-4.89-5.7v-13.92h-6.76v15.13c0,7.24,4.01,11.02,10.11,11.02,2.58,0,5.66-1.43,7.09-4.17v3.62h6.71V14.37h-6.71v13.65Z"/>
  <path class="cls-3" d="M249.48,30.16c1.92.44,2.86,1.1,2.8,2.41,0,1.48-1.43,2.52-3.35,2.58-2.47.16-4.56-1.43-4.73-3.23h-6.27c.17,5.48,5.28,8.61,10.33,8.61,5.33,0,10.5-2.63,10.5-7.89,0-2.08-.77-6.03-6.71-7.67l-4.29-1.04c-1.48-.38-2.69-1.1-2.69-2.14,0-1.92,1.54-2.52,3.24-2.52,1.54,0,3.3.71,3.46,2.63h6.38c-.27-5.86-5.11-8.06-10-8.06s-9.45,3.45-9.45,7.62c0,2.96.6,6.08,7.26,7.84l3.52.88Z"/>
  <path class="cls-3" d="M271,4.44h-6.65v9.95h-4.67v5.88h4.67v19.93h6.65v-19.93h5.44v-5.88h-5.44V4.44Z"/>
  <path class="cls-3" d="M110.53,42.03c.02.53.04,2.57-1.45,4.35-1.8,2.16-4.39,2.26-4.95,2.26-1.79.02-3.07-.72-3.35-.89-.36-.22-1.15-.74-1.84-1.69-1.18-1.63-1.23-3.37-1.21-4.04-2.12.02-4.23.04-6.35.05,0,7.62,5.68,12.86,12.82,12.86s12.66-5.13,12.66-12.86c-2.11-.02-4.23-.04-6.34-.05Z"/>
  <path class="cls-2" d="M70.57,31.13h-13.2l-3.24,8.42h-6.99L60.4,4.81h7.09l13.25,34.75h-6.93l-3.24-8.42ZM59.57,25.48h8.83l-4.47-13.26-4.37,13.26Z"/>
  <path class="cls-3" d="M157.1,4.44h-6.65v9.88h-4.67v5.88h4.67v19.76h6.65v-19.76h5.44v-5.88h-5.44V4.44Z"/>
  <path class="cls-2" d="M91.06,27.1c0-7.94,5.97-12.98,13.07-12.98s13.07,5.04,13.07,12.98-5.97,13.09-13.07,13.09-13.07-5.2-13.07-13.09ZM110.69,27.1c0-4.02-2.9-6.54-6.56-6.54s-6.56,2.52-6.56,6.54,2.9,6.7,6.56,6.7,6.56-2.63,6.56-6.7Z"/>
  <path class="cls-3" d="M104.17,14.15c-7.73,0-13.09,6.03-13.09,12.94,0,7.71,5.82,13.02,13.15,13.02s12.98-5.21,12.98-13.04c0-4.61-1.97-6.65-1.97-6.65l1.67-.58v-4.97h-8.57s-1.86-.72-4.18-.72h0ZM104.1,20.05c4.05,0,7.03,3.2,7.03,7.06,0,4.09-3.29,7.08-6.92,7.08-4.29,0-6.99-3.45-6.99-7.07,0-3.96,3.05-7.07,6.89-7.07h0Z"/>
</svg>