<?xml version="1.0" encoding="UTF-8"?>
<svg id="Layer_1" data-name="Layer 1" xmlns="http://www.w3.org/2000/svg" viewBox="0 0 267.64 51.41">
  <defs>
    <style>
      .cls-1 {
        fill: #e95208;
      }

      .cls-2 {
        fill-rule: evenodd;
      }

      .cls-2, .cls-3 {
        fill: #383934;
      }
    </style>
  </defs>
  <path class="cls-2" d="M70.52,38.63h5.9v-22.59h-5.9v2.8c-1.69-2.47-4.93-3.29-7.01-3.29-5.95,0-11.51,4.55-11.51,11.75s5.56,11.75,11.51,11.75c2.18,0,5.61-1.02,7.01-3.34v2.9h0ZM58.09,27.31c0-3.68,2.95-6.09,6.24-6.09,3.1,0,6.19,2.22,6.19,6.09s-2.95,6.09-6.19,6.09-6.24-2.42-6.24-6.09Z"/>
  <rect class="cls-3" x="81.39" y="3.76" width="5.9" height="34.87"/>
  <path class="cls-2" d="M129.38,33.31c-3.29,0-5.9-2.37-5.9-6.05s2.61-5.9,5.9-5.9c1.46,0,2.79.45,3.81,1.26l2.18-5.57c-1.76-.97-3.82-1.5-5.99-1.5-6.38,0-11.75,4.55-11.75,11.7s5.37,11.8,11.75,11.8,11.75-4.69,11.75-11.8c0-2.38-.6-4.48-1.63-6.21l-5.5,2.38c.8.98,1.28,2.28,1.28,3.83,0,3.68-2.61,6.05-5.9,6.05Z"/>
  <polygon class="cls-2" points="154.47 7.44 148.62 7.44 148.62 16.05 144.5 16.05 144.5 20.79 148.62 20.79 148.62 38.63 154.47 38.63 154.47 20.79 159.26 20.79 159.26 16.05 154.47 16.05 154.47 7.44"/>
  <path class="cls-2" d="M168.58,26.59c0-3.92,2.95-5.27,5.42-5.27s4.79,1.79,4.79,5.03v12.28h5.9v-12.57c0-6.63-3.24-10.49-9.09-10.49-2.22,0-6,1.26-7.01,3.97V3.76h-5.9v34.87h5.9v-12.04Z"/>
  <path class="cls-2" d="M194.85,30.65c0-6,1.64-9.58,5.66-9.58.58,0,2.03,0,3.43.63l1.02-5.32c-.92-.53-2.13-.82-3.72-.82-2.56,0-5.22,1.69-6.38,5.8v-5.32h-5.9v22.59h5.9v-7.98Z"/>
  <path class="cls-2" d="M223.11,28.09c0,3.92-2.42,5.27-4.88,5.27-2.08,0-4.3-1.35-4.3-5.03v-12.28h-5.95v13.35c0,6.38,3.53,9.72,8.9,9.72,2.27,0,4.98-1.26,6.24-3.68v3.19h5.9v-22.59h-5.9v12.04Z"/>
  <path class="cls-2" d="M242.93,29.97c1.69.39,2.51.97,2.47,2.13,0,1.31-1.26,2.22-2.95,2.27-2.18.15-4.01-1.26-4.16-2.85h-5.51c.15,4.84,4.64,7.59,9.09,7.59,4.69,0,9.24-2.32,9.24-6.96,0-1.84-.68-5.32-5.9-6.77l-3.77-.92c-1.31-.34-2.37-.97-2.37-1.89,0-1.69,1.35-2.22,2.85-2.22,1.35,0,2.9.63,3.05,2.32h5.61c-.24-5.17-4.5-7.11-8.8-7.11s-8.32,3.05-8.32,6.72c0,2.61.53,5.37,6.38,6.92l3.1.77Z"/>
  <polygon class="cls-2" points="262.85 7.44 257 7.44 257 16.05 252.89 16.05 252.89 20.79 257 20.79 257 38.63 262.85 38.63 262.85 20.79 267.64 20.79 267.64 16.05 262.85 16.05 262.85 7.44"/>
  <path class="cls-2" d="M102.66,16.6c-6.83,0-11.56,5.25-11.56,11.26,0,6.71,5.14,11.33,11.61,11.33s11.46-4.54,11.46-11.34c0-4.01-1.74-5.79-1.74-5.79l1.48-.51v-4.32h-7.57s-1.64-.63-3.69-.63h0ZM102.6,21.74c3.57,0,6.21,2.78,6.21,6.14,0,3.56-2.9,6.16-6.11,6.16-3.79,0-6.18-3-6.18-6.15,0-3.45,2.69-6.15,6.08-6.15h0Z"/>
  <path class="cls-2" d="M108.77,40.08c0,3.56-2.9,6.18-6.11,6.18-3.79,0-6.19-3.03-6.19-6.18h-5.4c0,6.71,5.14,11.33,11.61,11.33s11.46-4.52,11.46-11.33h-5.37Z"/>
  <path class="cls-1" d="M21.46,0c7.15,5.89,14.3,11.77,21.46,17.66v25.48c-7.15-4.99-14.3-9.98-21.46-14.97-7.15,5.07-14.3,10.13-21.46,15.2v-25.7C7.15,11.77,14.3,5.89,21.46,0Z"/>
</svg>